<svg width="72" height="72" viewBox="0 0 72 72" fill="none" xmlns="http://www.w3.org/2000/svg">
<g clip-path="url(#clip0_74_519)">
<rect width="72" height="72" fill="#757A77"/>
<path d="M3.65625 3.65625H68.3438V68.3438H3.65625V3.65625Z" fill="#161616"/>
<path d="M3.65625 3.65625H68.3438V68.3438H3.65625V3.65625Z" fill="#757A77" fill-opacity="0.5"/>
<path d="M0 0V72H72V0H0ZM68.3438 68.3438H3.65625V3.65625H68.3438V68.3438Z" fill="#757A77"/>
<path d="M58.2188 33.2996C58.2188 33.2996 57.8813 25.0871 48.9376 25.0871C39.9376 25.0871 39.2063 37.4621 39.2063 37.4621V40.1059C39.2063 40.1059 40.7813 50.3996 48.3751 50.3996C55.9688 50.3996 56.7001 48.9371 56.7001 48.9371V44.3809C56.7001 44.3809 45.8438 49.5559 44.7751 38.7559H58.2751V33.2996H58.2188ZM53.1563 34.6496H44.7188C44.7188 34.6496 44.7188 29.9809 48.9376 29.4746C53.5501 29.4746 53.1563 34.6496 53.1563 34.6496ZM28.4063 16.8184H21.6001V18.9559L12.6001 49.8371H17.8876L20.3626 40.7809H29.8126L32.3438 49.8371H38.1376L28.4063 16.8184ZM21.4876 35.4934L25.0876 21.7121L28.6876 35.4934H21.4876Z" fill="#757A77"/>
</g>
<defs>
<clipPath id="clip0_74_519">
<rect width="72" height="72" fill="white"/>
</clipPath>
</defs>
</svg>
