<svg width="89" height="72" viewBox="0 0 89 72" fill="none" xmlns="http://www.w3.org/2000/svg">
<path d="M46.2073 40.4821C46.3712 37.5275 47.8153 34.9272 49.9991 33.0801C52.293 31.1745 55.1855 30.1393 58.1675 30.1565C61.3126 30.1565 64.1919 31.2639 66.3403 33.0801C68.5197 34.9272 69.9682 37.5319 70.1321 40.4821C70.3004 43.5209 69.0823 46.3426 66.9383 48.4334C64.5781 50.6845 61.4334 51.9271 58.1719 51.8974C54.9074 51.9294 51.7591 50.6867 49.3967 48.4334C47.2572 46.3426 46.0346 43.5209 46.2073 40.4821Z" fill="#757A77"/>
<path d="M27.1465 46.4625C27.1686 47.6143 27.5407 49.8601 28.09 51.6187C29.2925 55.3983 31.2994 58.8726 33.9726 61.8026C36.8406 64.9655 40.3482 67.4825 44.2628 69.1869C48.5198 71.0598 53.1226 72.0181 57.7734 71.9997C62.4288 72.0048 67.0333 71.0314 71.2884 69.1426C75.1964 67.4152 78.6989 64.8875 81.5697 61.7228C84.242 58.7868 86.2459 55.3064 87.4435 51.5213C88.0263 49.6717 88.3978 47.7622 88.5509 45.8291C88.9691 40.2388 87.591 34.661 84.6173 29.9088C82.8025 27.0074 80.4849 24.4529 77.7735 22.365L77.7779 22.3606L50.0967 1.10245L50.0258 1.04043C48.2052 -0.350495 45.1487 -0.346063 43.1554 1.04929C41.131 2.46236 40.9051 4.79681 42.6947 6.27633L42.6903 6.28076L54.2341 15.6761L19.049 15.716H18.9958C16.0899 15.716 13.2948 17.6296 12.7411 20.0394C12.1741 22.4979 14.1497 24.5355 17.1752 24.5444L17.1708 24.5577L35.0092 24.5223L3.16851 48.9565L3.04891 49.0495C0.0500061 51.3485 -0.920098 55.1713 0.966953 57.5944C2.88944 60.0573 6.96476 60.0573 10.0035 57.6032L27.3768 43.3883C27.3812 43.3883 27.1287 45.3064 27.1465 46.4625ZM71.7889 52.8856C68.2097 56.5357 63.2042 58.6043 57.7778 58.6132C52.347 58.6221 47.3414 56.5711 43.7578 52.9299C42.0594 51.2376 40.7529 49.1932 39.9306 46.9409C39.1486 44.8017 38.8477 42.5164 39.0491 40.2477C39.244 38.0107 39.904 35.8756 40.9715 33.9486C42.0169 32.0483 43.461 30.3384 45.2329 28.8811C48.7875 26.0242 53.2175 24.4786 57.7778 24.5045C62.3338 24.4686 66.7634 26.0014 70.3227 28.8456C72.0902 30.2897 73.5342 31.9951 74.5797 33.8911C75.6428 35.8224 76.3072 37.9487 76.5021 40.1857C76.7049 42.4541 76.4055 44.7393 75.6251 46.8789C74.7898 49.132 73.4817 51.1801 71.7889 52.8856Z" fill="#757A77"/>
</svg>
