<svg width="74" height="73" viewBox="0 0 74 73" fill="none" xmlns="http://www.w3.org/2000/svg">
<path d="M28.7648 0C25.9889 0 23.3267 1.08616 21.3638 3.01954C19.4009 4.95292 18.2982 7.57514 18.2982 10.3094V16.3652H33.9981C35.4253 16.3652 36.5964 18.4199 36.5964 19.8257H10.4666C7.69066 19.8257 5.02845 20.9118 3.06559 22.8452C1.10272 24.7786 0 27.4008 0 30.135V43.7643C0 46.4985 1.10272 49.1207 3.06559 51.0541C5.02845 52.9875 7.69066 54.0736 10.4666 54.0736H14.7849V44.4131C14.7801 43.061 15.0464 41.7212 15.5684 40.4706C16.0904 39.2201 16.8579 38.0833 17.8268 37.1255C18.7958 36.1677 19.9473 35.4077 21.2151 34.8892C22.4829 34.3707 23.8422 34.1038 25.2149 34.1038H44.428C50.2103 34.1038 54.8946 29.5222 54.8946 23.8269V10.3094C54.8946 7.57514 53.7919 4.95292 51.829 3.01954C49.8662 1.08616 47.2039 0 44.428 0H28.7648ZM26.1298 5.80352C27.5937 5.80352 28.7648 6.23608 28.7648 8.36283C28.7648 10.4896 27.5937 11.5746 26.1298 11.5746C24.7026 11.5746 23.5315 10.4932 23.5315 8.36644C23.5315 6.23968 24.7026 5.80352 26.1298 5.80352Z" fill="black"/>
<path d="M58.4043 18.0234V27.684C58.4087 29.0358 58.1421 30.3752 57.6199 31.6253C57.0977 32.8755 56.3301 34.0119 55.3611 34.9693C54.3922 35.9267 53.2409 36.6863 51.9734 37.2046C50.7058 37.7229 49.3468 37.9897 47.9744 37.9897H28.7649C27.3921 37.985 26.0319 38.2472 24.7623 38.7613C23.4926 39.2755 22.3385 40.0315 21.3661 40.9859C20.3937 41.9403 19.6222 43.0745 19.0958 44.3232C18.5693 45.572 18.2983 46.9109 18.2983 48.263V61.7805C18.2983 64.5147 19.4011 67.137 21.3639 69.0703C23.3268 71.0037 25.989 72.0899 28.7649 72.0899H44.4282C47.2034 72.0899 49.8651 71.0042 51.8279 69.0716C53.7906 67.139 54.8938 64.5177 54.8947 61.7841V55.7283H39.1912C37.764 55.7283 36.5965 53.6736 36.5965 52.2678H62.7264C65.5023 52.2678 68.1645 51.1816 70.1274 49.2483C72.0902 47.3149 73.1929 44.6927 73.1929 41.9584V28.3328C73.1929 25.5986 72.0902 22.9764 70.1274 21.043C68.1645 19.1096 65.5023 18.0234 62.7264 18.0234H58.4043ZM23.1291 34.2913L23.1144 34.3057L23.2535 34.2913H23.1291ZM47.0631 60.5189C48.4904 60.5189 49.6615 61.6003 49.6615 63.727C49.6615 64.0631 49.5942 64.3959 49.4637 64.7064C49.3331 65.017 49.1417 65.2991 48.9004 65.5367C48.6591 65.7744 48.3727 65.9629 48.0575 66.0915C47.7422 66.2202 47.4043 66.2864 47.0631 66.2864C45.5993 66.2864 44.4282 65.8538 44.4282 63.727C44.4282 61.6003 45.5993 60.5189 47.0631 60.5189Z" fill="#FDD835"/>
</svg>
