<svg width="53" height="77" viewBox="0 0 53 77" fill="none" xmlns="http://www.w3.org/2000/svg">
<path d="M2 14.1667C2 10.9399 3.28184 7.84523 5.56353 5.56353C7.84523 3.28184 10.9399 2 14.1667 2H26.3333V26.3333H14.1667C10.9399 26.3333 7.84523 25.0515 5.56353 22.7698C3.28184 20.4881 2 17.3935 2 14.1667ZM26.3333 2H38.5C40.0977 2 41.6799 2.3147 43.156 2.92613C44.6321 3.53756 45.9734 4.43375 47.1031 5.56353C48.2329 6.69331 49.1291 8.03456 49.7405 9.51068C50.352 10.9868 50.6667 12.5689 50.6667 14.1667C50.6667 15.7644 50.352 17.3465 49.7405 18.8226C49.1291 20.2988 48.2329 21.64 47.1031 22.7698C45.9734 23.8996 44.6321 24.7958 43.156 25.4072C41.6799 26.0186 40.0977 26.3333 38.5 26.3333H26.3333V2Z" fill="#757A77" fill-opacity="0.5"/>
<path d="M26.3333 2H14.1667C10.9399 2 7.84523 3.28184 5.56353 5.56353C3.28184 7.84523 2 10.9399 2 14.1667C2 17.3935 3.28184 20.4881 5.56353 22.7698C7.84523 25.0515 10.9399 26.3333 14.1667 26.3333H26.3333M26.3333 2V26.3333M26.3333 2H38.5C40.0977 2 41.6799 2.3147 43.156 2.92613C44.6321 3.53756 45.9734 4.43375 47.1031 5.56353C48.2329 6.69331 49.1291 8.03456 49.7405 9.51068C50.352 10.9868 50.6667 12.5689 50.6667 14.1667C50.6667 15.7644 50.352 17.3465 49.7405 18.8226C49.1291 20.2988 48.2329 21.64 47.1031 22.7698C45.9734 23.8996 44.6321 24.7958 43.156 25.4072C41.6799 26.0186 40.0977 26.3333 38.5 26.3333H26.3333" stroke="#757A77" stroke-width="4" stroke-linecap="round" stroke-linejoin="round"/>
<path d="M26.3333 38.5007C26.3333 36.9029 26.648 35.3208 27.2595 33.8447C27.8709 32.3685 28.7671 31.0273 29.8969 29.8975C31.0266 28.7677 32.3679 27.8715 33.844 27.2601C35.3201 26.6487 36.9022 26.334 38.5 26.334C40.0977 26.334 41.6799 26.6487 43.156 27.2601C44.6321 27.8715 45.9734 28.7677 47.1031 29.8975C48.2329 31.0273 49.1291 32.3685 49.7405 33.8447C50.352 35.3208 50.6667 36.9029 50.6667 38.5007C50.6667 40.0984 50.352 41.6805 49.7405 43.1566C49.1291 44.6328 48.2329 45.974 47.1031 47.1038C45.9734 48.2336 44.6321 49.1298 43.156 49.7412C41.6799 50.3526 40.0977 50.6673 38.5 50.6673C36.9022 50.6673 35.3201 50.3526 33.844 49.7412C32.3679 49.1298 31.0266 48.2336 29.8969 47.1038C28.7671 45.974 27.8709 44.6328 27.2595 43.1566C26.648 41.6805 26.3333 40.0984 26.3333 38.5007ZM2 62.834C2 59.6072 3.28184 56.5125 5.56353 54.2308C7.84523 51.9492 10.9399 50.6673 14.1667 50.6673H26.3333V62.834C26.3333 66.0608 25.0515 69.1554 22.7698 71.4371C20.4881 73.7188 17.3935 75.0006 14.1667 75.0006C10.9399 75.0006 7.84523 73.7188 5.56353 71.4371C3.28184 69.1554 2 66.0608 2 62.834ZM2 38.5007C2 35.2739 3.28184 32.1792 5.56353 29.8975C7.84523 27.6158 10.9399 26.334 14.1667 26.334H26.3333V50.6673H14.1667C10.9399 50.6673 7.84523 49.3855 5.56353 47.1038C3.28184 44.8221 2 41.7275 2 38.5007Z" fill="#757A77" fill-opacity="0.5"/>
<path d="M14.1667 50.6673C10.9399 50.6673 7.84523 51.9492 5.56353 54.2308C3.28184 56.5125 2 59.6072 2 62.834C2 66.0608 3.28184 69.1554 5.56353 71.4371C7.84523 73.7188 10.9399 75.0006 14.1667 75.0006C17.3935 75.0006 20.4881 73.7188 22.7698 71.4371C25.0515 69.1554 26.3333 66.0608 26.3333 62.834V50.6673M14.1667 50.6673H26.3333M14.1667 50.6673C10.9399 50.6673 7.84523 49.3855 5.56353 47.1038C3.28184 44.8221 2 41.7275 2 38.5007C2 35.2739 3.28184 32.1792 5.56353 29.8975C7.84523 27.6158 10.9399 26.334 14.1667 26.334H26.3333V50.6673M26.3333 38.5007C26.3333 36.9029 26.648 35.3208 27.2595 33.8447C27.8709 32.3685 28.7671 31.0273 29.8969 29.8975C31.0266 28.7677 32.3679 27.8715 33.844 27.2601C35.3201 26.6487 36.9022 26.334 38.5 26.334C40.0977 26.334 41.6799 26.6487 43.156 27.2601C44.6321 27.8715 45.9734 28.7677 47.1031 29.8975C48.2329 31.0273 49.1291 32.3685 49.7405 33.8447C50.352 35.3208 50.6667 36.9029 50.6667 38.5007C50.6667 40.0984 50.352 41.6805 49.7405 43.1566C49.1291 44.6328 48.2329 45.974 47.1031 47.1038C45.9734 48.2336 44.6321 49.1298 43.156 49.7412C41.6799 50.3526 40.0977 50.6673 38.5 50.6673C36.9022 50.6673 35.3201 50.3526 33.844 49.7412C32.3679 49.1298 31.0266 48.2336 29.8969 47.1038C28.7671 45.974 27.8709 44.6328 27.2595 43.1566C26.648 41.6805 26.3333 40.0984 26.3333 38.5007Z" stroke="#757A77" stroke-width="4" stroke-linecap="round" stroke-linejoin="round"/>
</svg>
