<svg width="81" height="72" viewBox="0 0 81 72" fill="none" xmlns="http://www.w3.org/2000/svg">
<path d="M24.0247 0.00655832C22.6832 0.0519708 21.4049 0.377427 20.25 1.04095C17.9415 2.36927 16.5632 4.80641 15.9437 7.69073C15.3248 10.5757 15.39 14.0062 16.007 17.8455C16.2449 19.3258 16.593 20.8824 16.9954 22.4738C15.4115 22.9216 13.8845 23.4009 12.4797 23.9358C8.8347 25.3234 5.82251 26.9822 3.62538 28.9596C1.42826 30.9369 0 33.3431 0 35.9998C0 38.6564 1.42763 41.0645 3.62538 43.0412C5.82188 45.0192 8.83406 46.678 12.4791 48.0656C13.8839 48.6005 15.4109 49.0786 16.9948 49.527C16.5923 51.1183 16.2443 52.675 16.0064 54.1547C15.3894 57.9958 15.3255 61.4251 15.9443 64.3094C16.5645 67.195 17.9409 69.6315 20.2494 70.9598C22.5579 72.2881 25.3625 72.2591 28.1791 71.3509C30.9952 70.4426 33.9441 68.6722 36.9721 66.2193C38.139 65.2744 39.3179 64.1971 40.5 63.053C41.6808 64.1971 42.8604 65.2744 44.0273 66.2193C47.0547 68.6728 50.0023 70.4433 52.819 71.3515C55.635 72.2598 58.4415 72.2881 60.75 70.9604C63.0585 69.6315 64.4368 67.195 65.0563 64.31C65.6752 61.4251 65.6087 57.9952 64.9917 54.1553C64.7538 52.675 64.407 51.1183 64.0046 49.527C65.5885 49.0792 67.1155 48.5998 68.5203 48.0656C72.1653 46.6786 75.1775 45.0192 77.3746 43.0418C79.5717 41.0645 81 38.6564 81 35.9998C81 33.3431 79.5724 30.9363 77.3746 28.9596C75.1775 26.9828 72.1653 25.3228 68.5203 23.9358C67.1155 23.4016 65.5897 22.9216 64.0058 22.4738C64.4083 20.8824 64.7551 19.3252 64.993 17.8455C65.61 14.0062 65.6739 10.5757 65.055 7.69073C64.4361 4.80578 63.0591 2.36927 60.75 1.04095C58.4409 -0.287361 55.6369 -0.258348 52.8202 0.649902C50.0042 1.55815 47.0553 3.32924 44.0273 5.78152C42.8604 6.72761 41.6796 7.80489 40.4981 8.94904C39.3166 7.80553 38.1377 6.72698 36.9708 5.78152C33.9441 3.32924 30.9977 1.55689 28.1817 0.648641C26.773 0.194516 25.3669 -0.0388541 24.0241 0.00529695L24.0247 0.00655832ZM24.1867 3.50395C25.0284 3.47998 25.9928 3.63451 27.0977 3.98961C29.3062 4.70234 31.9545 6.24132 34.7503 8.50564C35.8273 9.3773 36.929 10.3865 38.039 11.4638C35.7204 13.9614 33.4207 16.8016 31.1958 19.937C27.359 20.2902 23.7412 20.8553 20.4107 21.6084C20.031 20.1111 19.7045 18.6566 19.4849 17.2898C18.9154 13.7451 18.9027 10.6892 19.3887 8.42616C19.8741 6.16374 20.7822 4.78875 22.0111 4.0817C22.6256 3.72849 23.3451 3.52666 24.1867 3.50395ZM56.8139 3.50395C57.6555 3.52729 58.3751 3.72786 58.9895 4.0817C60.2184 4.78812 61.1265 6.16311 61.6119 8.42553C62.0973 10.688 62.0865 13.7445 61.517 17.2898C61.2974 18.6553 60.9715 20.1117 60.5912 21.6078C57.2613 20.8553 53.6429 20.2896 49.8049 19.937C47.5799 16.8022 45.279 13.9614 42.9604 11.4631C44.0703 10.3865 45.1733 9.37667 46.2504 8.505C49.0461 6.23943 51.6945 4.70297 53.9036 3.99024C55.0079 3.63451 55.9729 3.48061 56.8145 3.50458L56.8139 3.50395ZM40.5 13.9886C42.1568 15.7908 43.7279 17.6695 45.2081 19.6185C43.6615 19.5491 42.0966 19.5024 40.5 19.5024C38.904 19.5024 37.3391 19.5484 35.7919 19.6185C37.2714 17.6689 38.8425 15.7902 40.5 13.9886ZM40.5 23.013C43.0218 23.013 45.4802 23.1121 47.8621 23.2906C49.2474 25.3124 50.5559 27.3854 51.7849 29.5051C53.0124 31.6263 54.1594 33.7927 55.2236 35.9998C54.1594 38.2064 53.0124 40.3723 51.7849 42.4931C50.5557 44.6135 49.247 46.6871 47.8615 48.7096C45.4802 48.8881 43.0218 48.9877 40.5006 48.9877C38.0431 48.9872 35.5865 48.8946 33.136 48.7102C31.7511 46.6875 30.443 44.6137 29.2144 42.4931C27.987 40.3728 26.84 38.2072 25.7757 36.001C26.8404 33.794 27.9878 31.6276 29.2157 29.5064C30.4449 27.3862 31.7537 25.3128 33.1391 23.2906C35.5886 23.1062 38.0435 23.0136 40.5 23.013ZM28.6202 23.7466C27.7715 25.0629 26.9528 26.3983 26.1649 27.7517C25.3828 29.1083 24.6317 30.4824 23.9121 31.8729C22.9584 29.6208 22.1112 27.3254 21.3732 24.9942C23.645 24.4896 26.0637 24.067 28.6202 23.7466ZM52.3804 23.7466C54.8143 24.0493 57.2326 24.4656 59.6274 24.9942C58.8895 27.3258 58.0423 29.6216 57.0885 31.8742C56.369 30.483 55.6179 29.1083 54.8357 27.7511C54.0478 26.3977 53.2291 25.0623 52.3804 23.7459V23.7466ZM17.9497 25.8538C18.961 29.1046 20.2791 32.5106 21.8921 35.9985C20.2785 39.4877 18.9622 42.8949 17.9497 46.1457C16.4595 45.7262 15.0325 45.279 13.7352 44.7858C10.3693 43.5054 7.70829 41.9866 5.98451 40.435C4.26136 38.8847 3.52097 37.4138 3.52097 35.9991C3.52097 34.585 4.26136 33.1154 5.98451 31.5651C7.70829 30.0135 10.3699 28.4953 13.7352 27.215C15.0325 26.7211 16.4595 26.2733 17.9497 25.8532V25.8538ZM63.0503 25.8538C64.5412 26.2739 65.9688 26.7217 67.2648 27.2162C70.6314 28.4966 73.2923 30.0141 75.0161 31.5651C76.7393 33.1167 77.4797 34.5863 77.4797 35.9998C77.4797 37.4145 76.7393 38.8853 75.0161 40.4357C73.2923 41.9873 70.6307 43.5048 67.2654 44.7858C65.9682 45.279 64.5399 45.7256 63.0496 46.1457C62.0384 42.8955 60.7209 39.4896 59.1091 36.001C60.7222 32.5118 62.0384 29.1053 63.0503 25.8538ZM40.5 28.8044C38.5855 28.8047 36.7495 29.5629 35.3957 30.9122C34.0419 32.2616 33.2812 34.0915 33.2809 35.9998C33.2812 37.9081 34.042 39.7382 35.3959 41.0875C36.7498 42.4368 38.586 43.1949 40.5006 43.1951C42.4152 43.1948 44.2512 42.4366 45.605 41.0873C46.9587 39.738 47.7194 37.908 47.7198 35.9998C47.7194 34.0914 46.9586 32.2613 45.6047 30.912C44.2508 29.5627 42.4146 28.8046 40.5 28.8044ZM57.0885 40.1266C58.0418 42.3792 58.8886 44.675 59.6261 47.0066C57.3556 47.5112 54.937 47.9344 52.3817 48.2555C53.2298 46.9384 54.0478 45.6024 54.8351 44.2484C55.6172 42.8917 56.369 41.5174 57.0885 40.1266ZM23.9121 40.1279C24.6317 41.5182 25.3828 42.8921 26.1649 44.2484C26.9532 45.602 27.7718 46.9378 28.6202 48.2548C26.1862 47.9528 23.7678 47.5363 21.3732 47.0066C22.1112 44.6754 22.9584 42.38 23.9121 40.1279ZM20.4095 50.393C23.7393 51.1448 27.3577 51.7093 31.1958 52.0619C33.4207 55.1985 35.7216 58.0393 38.0403 60.5389C36.9303 61.6143 35.8286 62.6235 34.7515 63.497C31.9558 65.7613 29.3049 67.3003 27.0958 68.013C24.8873 68.7245 23.2388 68.6267 22.0098 67.9197C20.7809 67.212 19.8741 65.8383 19.3887 63.5759C18.9027 61.3128 18.9148 58.2569 19.4849 54.7103C19.7045 53.3448 20.0291 51.8891 20.4095 50.393ZM60.5899 50.393C60.9696 51.8891 61.2961 53.3448 61.5157 54.7103C62.0852 58.2569 62.0979 61.3128 61.6119 63.5759C61.1265 65.8389 60.2184 67.2133 58.9895 67.9216C57.7606 68.628 56.1128 68.7245 53.9036 68.0118C51.6945 67.2991 49.0461 65.7601 46.2504 63.4958C45.174 62.6235 44.071 61.6143 42.9616 60.5376C45.2803 58.04 47.5799 55.1979 49.8049 52.0619C53.6416 51.7093 57.2594 51.1448 60.5899 50.393ZM35.7919 52.3811C37.3604 52.4557 38.9304 52.4948 40.5006 52.4984C42.0711 52.4948 43.6413 52.4557 45.21 52.3811C43.7302 54.3315 42.1586 56.211 40.5006 58.0135C38.8431 56.211 37.2713 54.3314 35.7919 52.3811Z" fill="#757A77"/>
</svg>
